<svg width="1000" height="1200" viewBox="0 0 1260 720" fill="none" xmlns="http://www.w3.org/2000/svg" style="background-color:#F5F5F5">
    <path d="M1127.63 425.174L1127.58 336.633L1200.4 363.102L1198.97 453.407L1127.63 425.174Z" stroke="#F25E25" stroke-width="2" stroke-miterlimit="10" />
    <path d="M1198.97 453.407L1265.67 420.975L1265.73 332.191L1200.4 363.102L1198.97 453.407Z" stroke="#F25E25" stroke-width="2" stroke-miterlimit="10" />
    <path d="M1127.58 336.633L1194.41 305.054L1265.73 332.191L1200.4 363.102L1127.58 336.633Z" stroke="#F25E25" stroke-width="2" stroke-miterlimit="10" />
    <path d="M1284.72 462.86L1284.67 374.318L1357.5 400.787L1356.06 491.093L1284.72 462.86Z" stroke="#F25E25" stroke-width="2" stroke-miterlimit="10" />
    <path d="M1356.06 491.093L1422.77 458.66L1422.82 369.877L1357.5 400.787L1356.06 491.093Z" stroke="#F25E25" stroke-width="2" stroke-miterlimit="10" />
    <path d="M1284.67 374.318L1351.51 342.74L1422.82 369.877L1357.5 400.787L1284.67 374.318Z" stroke="#F25E25" stroke-width="2" stroke-miterlimit="10" />
    <path d="M1363.63 243.174L1363.58 154.633L1436.4 181.102L1434.97 271.407L1363.63 243.174Z" stroke="url(#paint0_linear_0_1)" stroke-width="2" stroke-miterlimit="10" />
    <path d="M1434.97 271.407L1501.67 238.975L1501.73 150.191L1436.4 181.101L1434.97 271.407Z" stroke="url(#paint1_linear_0_1)" stroke-width="2" stroke-miterlimit="10" />
    <path d="M1363.58 154.633L1430.41 123.054L1501.73 150.191L1436.4 181.102L1363.58 154.633Z" stroke="url(#paint2_linear_0_1)" stroke-width="2" stroke-miterlimit="10" />
    <path d="M1144.46 259.012L1144.44 214.741L1180.85 227.975L1180.13 273.128L1144.46 259.012Z" stroke="#F25E25" stroke-width="2" stroke-miterlimit="10" />
    <path d="M1180.13 273.128L1213.49 256.912L1213.51 212.52L1180.85 227.975L1180.13 273.128Z" stroke="#F25E25" stroke-width="2" stroke-miterlimit="10" />
    <path d="M1144.44 214.741L1177.86 198.952L1213.51 212.52L1180.85 227.975L1144.44 214.741Z" stroke="#F25E25" stroke-width="2" stroke-miterlimit="10" />
    <path d="M1363.81 338.587L1363.79 294.316L1400.2 307.551L1399.48 352.704L1363.81 338.587Z" stroke="#F2A025" stroke-width="2" stroke-miterlimit="10" />
    <path d="M1399.48 352.704L1432.84 336.488L1432.86 292.096L1400.2 307.551L1399.48 352.704Z" stroke="#F2A025" stroke-width="2" stroke-miterlimit="10" />
    <path d="M1363.79 294.316L1397.21 278.527L1432.86 292.096L1400.2 307.551L1363.79 294.316Z" stroke="#F2A025" stroke-width="2" stroke-miterlimit="10" />
    <path d="M1246.72 314.38L1246.68 247.974L1301.3 267.826L1300.23 335.555L1246.72 314.38Z" stroke="#F2A025" stroke-width="2" stroke-miterlimit="10" />
    <path d="M1300.23 335.555L1350.25 311.231L1350.3 244.643L1301.3 267.826L1300.23 335.555Z" stroke="#F2A025" stroke-width="2" stroke-miterlimit="10" />
    <path d="M1246.68 247.974L1296.81 224.291L1350.3 244.643L1301.3 267.826L1246.68 247.974Z" stroke="#F2A025" stroke-width="2" stroke-miterlimit="10" />
    <path d="M1422.72 415.381L1422.68 348.975L1477.3 368.826L1476.23 436.555L1422.72 415.381Z" stroke="url(#paint3_linear_0_1)" stroke-width="2" stroke-miterlimit="10" />
    <path d="M1476.23 436.555L1526.25 412.231L1526.3 345.643L1477.3 368.826L1476.23 436.555Z" stroke="url(#paint4_linear_0_1)" stroke-width="2" stroke-miterlimit="10" />
    <path d="M1422.68 348.975L1472.81 325.291L1526.3 345.644L1477.3 368.826L1422.68 348.975Z" stroke="url(#paint5_linear_0_1)" stroke-width="2" stroke-miterlimit="10" />
    <path d="M384.787 403.174L384.835 314.633L312.011 341.102L313.444 431.407L384.787 403.174Z" stroke="#F25E25" stroke-width="2" stroke-miterlimit="10" />
    <path d="M313.444 431.407L246.741 398.975L246.684 310.192L312.011 341.102L313.444 431.407Z" stroke="#F25E25" stroke-width="2" stroke-miterlimit="10" />
    <path d="M384.835 314.633L318.001 283.055L246.684 310.192L312.011 341.102L384.835 314.633Z" stroke="#F25E25" stroke-width="2" stroke-miterlimit="10" />
    <path d="M220.729 463.86L220.777 375.318L147.953 401.787L149.386 492.093L220.729 463.86Z" stroke="#F25E25" stroke-width="2" stroke-miterlimit="10" />
    <path d="M149.386 492.093L82.6831 459.661L82.6257 370.877L147.953 401.787L149.386 492.093Z" stroke="#F25E25" stroke-width="2" stroke-miterlimit="10" />
    <path d="M220.777 375.318L153.942 343.74L82.6257 370.877L147.953 401.787L220.777 375.318Z" stroke="#F25E25" stroke-width="2" stroke-miterlimit="10" />
    <path d="M164.056 251.638L164.104 163.096L91.2806 189.565L92.7131 279.871L164.056 251.638Z" stroke="url(#paint6_linear_0_1)" stroke-width="2" stroke-miterlimit="10" />
    <path d="M92.713 279.871L26.0106 247.438L25.9532 158.655L91.2806 189.565L92.713 279.871Z" stroke="url(#paint7_linear_0_1)" stroke-width="2" stroke-miterlimit="10" />
    <path d="M164.104 163.096L97.2699 131.518L25.9533 158.655L91.2806 189.565L164.104 163.096Z" stroke="url(#paint8_linear_0_1)" stroke-width="2" stroke-miterlimit="10" />
    <path d="M360.987 260.012L361.011 215.741L324.599 228.976L325.316 274.129L360.987 260.012Z" stroke="#F25E25" stroke-width="2" stroke-miterlimit="10" />
    <path d="M325.316 274.129L291.964 257.912L291.936 213.521L324.599 228.976L325.316 274.129Z" stroke="#F25E25" stroke-width="2" stroke-miterlimit="10" />
    <path d="M361.011 215.741L327.594 199.952L291.936 213.521L324.599 228.976L361.011 215.741Z" stroke="#F25E25" stroke-width="2" stroke-miterlimit="10" />
    <path d="M116.768 357.893L116.792 313.623L80.3797 326.857L81.0959 372.01L116.768 357.893Z" stroke="#F2A025" stroke-width="2" stroke-miterlimit="10" />
    <path d="M81.0959 372.01L47.7447 355.794L47.716 311.402L80.3797 326.857L81.0959 372.01Z" stroke="#F2A025" stroke-width="2" stroke-miterlimit="10" />
    <path d="M116.792 313.623L83.3743 297.834L47.716 311.402L80.3797 326.857L116.792 313.623Z" stroke="#F2A025" stroke-width="2" stroke-miterlimit="10" />
    <path d="M234.302 334.984L234.338 268.578L179.72 288.429L180.795 356.159L234.302 334.984Z" stroke="#F2A025" stroke-width="2" stroke-miterlimit="10" />
    <path d="M180.795 356.159L130.768 331.834L130.725 265.247L179.72 288.429L180.795 356.159Z" stroke="#F2A025" stroke-width="2" stroke-miterlimit="10" />
    <path d="M234.338 268.578L184.212 244.894L130.725 265.247L179.72 288.429L234.338 268.578Z" stroke="#F2A025" stroke-width="2" stroke-miterlimit="10" />
    <path d="M82.5456 438.825L82.5815 372.419L27.9637 392.271L29.0381 460L82.5456 438.825Z" stroke="url(#paint9_linear_0_1)" stroke-width="2" stroke-miterlimit="10" />
    <path d="M29.0381 460L-20.9888 435.676L-21.0318 369.088L27.9637 392.271L29.0381 460Z" stroke="url(#paint10_linear_0_1)" stroke-width="2" stroke-miterlimit="10" />
    <path d="M82.5815 372.419L32.4557 348.736L-21.0318 369.088L27.9638 392.271L82.5815 372.419Z" stroke="url(#paint11_linear_0_1)" stroke-width="2" stroke-miterlimit="10" />
    <defs>
        <linearGradient id="paint0_linear_0_1" x1="1350.32" y1="170.437" x2="1449.71" y2="253.839" gradientUnits="userSpaceOnUse">
            <stop stop-color="#F25E25" />
            <stop offset="1" stop-color="#F2A025" />
        </linearGradient>
        <linearGradient id="paint1_linear_0_1" x1="1434.98" y1="182.798" x2="1501.78" y2="238.849" gradientUnits="userSpaceOnUse">
            <stop stop-color="#F25E25" />
            <stop offset="1" stop-color="#F2A025" />
        </linearGradient>
        <linearGradient id="paint2_linear_0_1" x1="1393.21" y1="119.317" x2="1472.1" y2="185.508" gradientUnits="userSpaceOnUse">
            <stop stop-color="#F25E25" />
            <stop offset="1" stop-color="#F2A025" />
        </linearGradient>
        <linearGradient id="paint3_linear_0_1" x1="1412.74" y1="360.828" x2="1487.28" y2="423.379" gradientUnits="userSpaceOnUse">
            <stop stop-color="#F25E25" />
            <stop offset="1" stop-color="#F2A025" />
        </linearGradient>
        <linearGradient id="paint4_linear_0_1" x1="1476.23" y1="370.098" x2="1526.33" y2="412.137" gradientUnits="userSpaceOnUse">
            <stop stop-color="#F25E25" />
            <stop offset="1" stop-color="#F2A025" />
        </linearGradient>
        <linearGradient id="paint5_linear_0_1" x1="1444.91" y1="322.487" x2="1504.07" y2="372.131" gradientUnits="userSpaceOnUse">
            <stop stop-color="#F25E25" />
            <stop offset="1" stop-color="#F2A025" />
        </linearGradient>
        <linearGradient id="paint6_linear_0_1" x1="177.366" y1="178.901" x2="77.9714" y2="262.302" gradientUnits="userSpaceOnUse">
            <stop stop-color="#F25E25" />
            <stop offset="1" stop-color="#F2A025" />
        </linearGradient>
        <linearGradient id="paint7_linear_0_1" x1="92.7039" y1="191.261" x2="25.9049" y2="247.312" gradientUnits="userSpaceOnUse">
            <stop stop-color="#F25E25" />
            <stop offset="1" stop-color="#F2A025" />
        </linearGradient>
        <linearGradient id="paint8_linear_0_1" x1="134.47" y1="127.78" x2="55.5871" y2="193.971" gradientUnits="userSpaceOnUse">
            <stop stop-color="#F25E25" />
            <stop offset="1" stop-color="#F2A025" />
        </linearGradient>
        <linearGradient id="paint9_linear_0_1" x1="92.5275" y1="384.272" x2="17.9818" y2="446.824" gradientUnits="userSpaceOnUse">
            <stop stop-color="#F25E25" />
            <stop offset="1" stop-color="#F2A025" />
        </linearGradient>
        <linearGradient id="paint10_linear_0_1" x1="29.0312" y1="393.543" x2="-21.0681" y2="435.581" gradientUnits="userSpaceOnUse">
            <stop stop-color="#F25E25" />
            <stop offset="1" stop-color="#F2A025" />
        </linearGradient>
        <linearGradient id="paint11_linear_0_1" x1="60.3561" y1="345.932" x2="1.19358" y2="395.575" gradientUnits="userSpaceOnUse">
            <stop stop-color="#F25E25" />
            <stop offset="1" stop-color="#F2A025" />
        </linearGradient>
    </defs>
</svg>    